<?xml version="1.0" encoding="iso-8859-1"?>
<!-- Generator: Adobe Illustrator 19.0.0, SVG Export Plug-In . SVG Version: 6.00 Build 0)  -->
<svg version="1.1" id="Capa_1" xmlns="http://www.w3.org/2000/svg" xmlns:xlink="http://www.w3.org/1999/xlink" x="0px" y="0px"
	 viewBox="0 0 512 512" style="enable-background:new 0 0 512 512;" xml:space="preserve">
<g>
	<g>
		<g>
			<path d="M30.373,321.085c0.084,57.908,34.019,110.419,86.78,134.285v47.952c0.014,4.787,3.891,8.664,8.678,8.678h17.356
				c4.787-0.014,8.664-3.891,8.678-8.678v-37.154c8.588,1.584,17.301,2.401,26.034,2.442h156.203
				c8.733-0.041,17.445-0.858,26.034-2.442v37.154c0.014,4.787,3.891,8.664,8.678,8.678h17.356c4.787-0.014,8.664-3.891,8.678-8.678
				V455.37c52.761-23.866,86.695-76.377,86.78-134.285v-52.068H30.373V321.085z"/>
			<path d="M490.305,234.305H21.695c-4.793,0-8.678,3.885-8.678,8.678c0,4.793,3.885,8.678,8.678,8.678h468.61
				c4.793,0,8.678-3.885,8.678-8.678C498.983,238.19,495.098,234.305,490.305,234.305z"/>
			<path d="M56.407,182.237h17.356v8.678c0,4.793,3.885,8.678,8.678,8.678s8.678-3.885,8.678-8.678v-34.712
				c0-4.793-3.885-8.678-8.678-8.678s-8.678,3.885-8.678,8.678v8.678H56.407V60.746c0-23.964,19.426-43.39,43.39-43.39
				c23.964,0,43.39,19.426,43.39,43.39v0.783c-25.028,4.239-43.355,25.901-43.39,51.285c0.014,4.787,3.891,8.664,8.678,8.678h86.78
				c4.787-0.014,8.664-3.891,8.678-8.678c-0.035-25.384-18.362-47.046-43.39-51.285v-0.783C160.542,27.197,133.346,0,99.797,0
				S39.051,27.197,39.051,60.746v160.542h17.356V182.237z"/>
		</g>
	</g>
</g>
<g>
</g>
<g>
</g>
<g>
</g>
<g>
</g>
<g>
</g>
<g>
</g>
<g>
</g>
<g>
</g>
<g>
</g>
<g>
</g>
<g>
</g>
<g>
</g>
<g>
</g>
<g>
</g>
<g>
</g>
</svg>
