<?xml version="1.0" encoding="utf-8"?>
<!-- Generator: Adobe Illustrator 16.0.0, SVG Export Plug-In . SVG Version: 6.00 Build 0)  -->
<!DOCTYPE svg PUBLIC "-//W3C//DTD SVG 1.1//EN" "http://www.w3.org/Graphics/SVG/1.1/DTD/svg11.dtd">
<svg version="1.1" xmlns="http://www.w3.org/2000/svg" xmlns:xlink="http://www.w3.org/1999/xlink" x="0px" y="0px" width="50px"
	 height="50px" viewBox="0 0 50 50" enable-background="new 0 0 50 50" xml:space="preserve">
<g id="Layer_2" display="none">
	<rect display="inline" fill="#FFFFFF" width="50" height="50"/>
</g>
<g id="Layer_1" display="none">
	<path display="inline" fill="#DEDDDD" d="M37.46,0.172H12.665c-0.571,0-1.034,0.462-1.034,1.033v47.524
		c0,0.57,0.463,1.034,1.034,1.034H37.46c0.571,0,1.033-0.464,1.033-1.034V1.205C38.493,0.635,38.031,0.172,37.46,0.172z"/>
	<path display="inline" fill="#303952" d="M25.062,49.764c-0.569,0-1.032-0.464-1.032-1.034v-2.066c0-0.571,0.463-1.033,1.032-1.033
		c0.572,0,1.034,0.464,1.034,1.033v2.066C26.096,49.3,25.634,49.764,25.062,49.764z"/>
	<g display="inline">
		<path fill="#786FA7" d="M34.359,43.563H15.765c-0.572,0-1.033-0.464-1.033-1.031c0-0.571,0.461-1.035,1.033-1.035h18.595
			c0.572,0,1.034,0.461,1.034,1.035C35.394,43.1,34.932,43.563,34.359,43.563z"/>
		<path fill="#786FA7" d="M34.359,39.433H15.765c-0.572,0-1.033-0.464-1.033-1.036c0-0.569,0.461-1.03,1.033-1.03h18.595
			c0.572,0,1.034,0.461,1.034,1.03C35.394,38.969,34.932,39.433,34.359,39.433z"/>
		<path fill="#786FA7" d="M34.359,35.297H15.765c-0.572,0-1.033-0.461-1.033-1.03c0-0.572,0.461-1.033,1.033-1.033h18.595
			c0.572,0,1.034,0.461,1.034,1.033C35.394,34.836,34.932,35.297,34.359,35.297z"/>
		<path fill="#786FA7" d="M34.359,31.166H15.765c-0.572,0-1.033-0.464-1.033-1.033c0-0.571,0.461-1.033,1.033-1.033h18.595
			c0.572,0,1.034,0.462,1.034,1.033C35.394,30.702,34.932,31.166,34.359,31.166z"/>
		<path fill="#786FA7" d="M34.359,27.035H15.765c-0.572,0-1.033-0.464-1.033-1.035c0-0.57,0.461-1.032,1.033-1.032h18.595
			c0.572,0,1.034,0.462,1.034,1.032C35.394,26.571,34.932,27.035,34.359,27.035z"/>
		<path fill="#786FA7" d="M34.359,22.901H15.765c-0.572,0-1.033-0.463-1.033-1.033c0-0.571,0.461-1.034,1.033-1.034h18.595
			c0.572,0,1.034,0.463,1.034,1.034C35.394,22.438,34.932,22.901,34.359,22.901z"/>
		<path fill="#786FA7" d="M34.359,18.769H15.765c-0.572,0-1.033-0.462-1.033-1.033c0-0.571,0.461-1.034,1.033-1.034h18.595
			c0.572,0,1.034,0.463,1.034,1.034C35.394,18.307,34.932,18.769,34.359,18.769z"/>
		<path fill="#786FA7" d="M34.359,14.637H15.765c-0.572,0-1.033-0.463-1.033-1.033c0-0.571,0.461-1.034,1.033-1.034h18.595
			c0.572,0,1.034,0.463,1.034,1.034C35.394,14.174,34.932,14.637,34.359,14.637z"/>
		<path fill="#786FA7" d="M34.359,10.503H15.765c-0.572,0-1.033-0.462-1.033-1.033s0.461-1.033,1.033-1.033h18.595
			c0.572,0,1.034,0.462,1.034,1.033S34.932,10.503,34.359,10.503z"/>
		<path fill="#786FA7" d="M34.359,6.372H15.765c-0.572,0-1.033-0.463-1.033-1.033c0-0.571,0.461-1.034,1.033-1.034h18.595
			c0.572,0,1.034,0.463,1.034,1.034C35.394,5.909,34.932,6.372,34.359,6.372z"/>
	</g>
	<path display="inline" fill="#CCCCCC" d="M38.493,2.24H11.631c-0.569,0-1.033-0.464-1.033-1.035c0-0.57,0.464-1.033,1.033-1.033
		h26.862c0.571,0,1.035,0.462,1.035,1.033C39.528,1.776,39.064,2.24,38.493,2.24z"/>
	<path display="inline" fill="#565656" d="M39.528,49.764h-28.93c-0.569,0-1.033-0.464-1.033-1.034c0-0.571,0.463-1.033,1.033-1.033
		h28.93c0.567,0,1.031,0.462,1.031,1.033C40.56,49.3,40.096,49.764,39.528,49.764z"/>
</g>
<g id="building">
	<path fill="#F3A683" d="M37.46,0.172H12.665c-0.571,0-1.034,0.462-1.034,1.033v47.524c0,0.57,0.463,1.034,1.034,1.034H37.46
		c0.571,0,1.033-0.464,1.033-1.034V1.205C38.493,0.635,38.031,0.172,37.46,0.172z"/>
	<path fill="#303952" d="M25.062,49.764c-0.569,0-1.032-0.464-1.032-1.034v-2.066c0-0.571,0.463-1.033,1.032-1.033
		c0.572,0,1.034,0.464,1.034,1.033v2.066C26.096,49.3,25.634,49.764,25.062,49.764z"/>
	<g>
		<path fill="#F7F7F7" d="M34.359,43.563H15.765c-0.572,0-1.033-0.464-1.033-1.031c0-0.571,0.461-1.035,1.033-1.035h18.595
			c0.572,0,1.034,0.461,1.034,1.035C35.394,43.1,34.932,43.563,34.359,43.563z"/>
		<path fill="#F7F7F7" d="M34.359,39.433H15.765c-0.572,0-1.033-0.464-1.033-1.036c0-0.569,0.461-1.03,1.033-1.03h18.595
			c0.572,0,1.034,0.461,1.034,1.03C35.394,38.969,34.932,39.433,34.359,39.433z"/>
		<path fill="#F7F7F7" d="M34.359,35.297H15.765c-0.572,0-1.033-0.461-1.033-1.03c0-0.572,0.461-1.033,1.033-1.033h18.595
			c0.572,0,1.034,0.461,1.034,1.033C35.394,34.836,34.932,35.297,34.359,35.297z"/>
		<path fill="#F7F7F7" d="M34.359,31.166H15.765c-0.572,0-1.033-0.464-1.033-1.033c0-0.571,0.461-1.033,1.033-1.033h18.595
			c0.572,0,1.034,0.462,1.034,1.033C35.394,30.702,34.932,31.166,34.359,31.166z"/>
		<path fill="#F7F7F7" d="M34.359,27.035H15.765c-0.572,0-1.033-0.464-1.033-1.035c0-0.57,0.461-1.032,1.033-1.032h18.595
			c0.572,0,1.034,0.462,1.034,1.032C35.394,26.571,34.932,27.035,34.359,27.035z"/>
		<path fill="#F7F7F7" d="M34.359,22.901H15.765c-0.572,0-1.033-0.463-1.033-1.033c0-0.571,0.461-1.034,1.033-1.034h18.595
			c0.572,0,1.034,0.463,1.034,1.034C35.394,22.438,34.932,22.901,34.359,22.901z"/>
		<path fill="#F7F7F7" d="M34.359,18.769H15.765c-0.572,0-1.033-0.462-1.033-1.033c0-0.571,0.461-1.034,1.033-1.034h18.595
			c0.572,0,1.034,0.463,1.034,1.034C35.394,18.307,34.932,18.769,34.359,18.769z"/>
		<path fill="#F7F7F7" d="M34.359,14.637H15.765c-0.572,0-1.033-0.463-1.033-1.033c0-0.571,0.461-1.034,1.033-1.034h18.595
			c0.572,0,1.034,0.463,1.034,1.034C35.394,14.174,34.932,14.637,34.359,14.637z"/>
		<path fill="#F7F7F7" d="M34.359,10.503H15.765c-0.572,0-1.033-0.462-1.033-1.033s0.461-1.033,1.033-1.033h18.595
			c0.572,0,1.034,0.462,1.034,1.033S34.932,10.503,34.359,10.503z"/>
		<path fill="#F7F7F7" d="M34.359,6.372H15.765c-0.572,0-1.033-0.463-1.033-1.033c0-0.571,0.461-1.034,1.033-1.034h18.595
			c0.572,0,1.034,0.463,1.034,1.034C35.394,5.909,34.932,6.372,34.359,6.372z"/>
	</g>
	<path fill="#DB967B" d="M38.493,2.24H11.631c-0.569,0-1.033-0.464-1.033-1.035c0-0.57,0.464-1.033,1.033-1.033h26.862
		c0.571,0,1.035,0.462,1.035,1.033C39.528,1.776,39.064,2.24,38.493,2.24z"/>
	<path fill="#565656" d="M39.528,49.764h-28.93c-0.569,0-1.033-0.464-1.033-1.034c0-0.571,0.463-1.033,1.033-1.033h28.93
		c0.567,0,1.031,0.462,1.031,1.033C40.56,49.3,40.096,49.764,39.528,49.764z"/>
</g>
</svg>
