<?xml version="1.0" encoding="iso-8859-1"?>
<!-- Generator: Adobe Illustrator 19.0.0, SVG Export Plug-In . SVG Version: 6.00 Build 0)  -->
<svg version="1.1" id="Capa_1" xmlns="http://www.w3.org/2000/svg" xmlns:xlink="http://www.w3.org/1999/xlink" x="0px" y="0px"
	 viewBox="0 0 512 512" style="enable-background:new 0 0 512 512;" xml:space="preserve">
<g>
	<g>
		<rect x="352.32" y="312.762" width="51.32" height="179.45"/>
	</g>
</g>
<g>
	<g>
		<rect x="271" y="312.762" width="51.32" height="179.45"/>
	</g>
</g>
<g>
	<g>
		<path d="M30.063,312.764v116.732c0,28.575,16.157,52.729,38.173,60.269V312.764H30.063z"/>
	</g>
</g>
<g>
	<g>
		<rect x="189.68" y="312.762" width="51.32" height="179.45"/>
	</g>
</g>
<g>
	<g>
		<rect x="98.24" y="312.762" width="61.44" height="179.45"/>
	</g>
</g>
<g>
	<g>
		<path d="M433.641,312.764v179.215c27.008-2.697,48.296-29.68,48.296-62.482V312.764H433.641z"/>
	</g>
</g>
<g>
	<g>
		<path d="M205.472,140.461l-7.343-5.901c-1.571-1.263-2.745-2.876-3.483-4.677c-0.589-1.437-0.908-2.989-0.886-4.598
			c0.014-0.987,0.159-1.95,0.406-2.877c0.66-2.477,2.112-4.681,4.211-6.276c10.146-7.71,16.144-19.439,16.454-32.179
			c0.312-12.739-5.107-24.746-14.865-32.942c-6.345-5.328-15.806-4.506-21.133,1.838c-5.329,6.344-4.506,15.805,1.838,21.133
			c3.747,3.147,4.221,7.141,4.169,9.24c-0.051,2.1-0.719,6.064-4.616,9.025c-10.286,7.818-16.286,19.713-16.461,32.633
			c-0.174,12.919,5.502,24.971,15.573,33.064l7.344,5.901c2.771,2.227,6.09,3.309,9.387,3.309c4.389,0,8.739-1.918,11.702-5.604
			C212.958,155.092,211.93,145.651,205.472,140.461z"/>
	</g>
</g>
<g>
	<g>
		<path d="M267.651,128.246l-8.613-6.922c-0.779-0.626-1.471-1.328-2.111-2.066c-2.596-2.993-4.034-6.813-3.979-10.866
			c0.043-3.196,1.003-6.228,2.717-8.802c0.996-1.495,2.243-2.837,3.722-3.961c11.269-8.563,17.929-21.59,18.274-35.738
			c0.345-14.149-5.672-27.484-16.509-36.588c-6.343-5.329-15.806-4.506-21.134,1.837c-5.328,6.344-4.506,15.806,1.837,21.134
			c3.816,3.206,5.936,7.902,5.814,12.885c-0.122,4.98-2.468,9.568-6.436,12.584c-11.425,8.683-18.089,21.893-18.283,36.242
			c-0.194,14.349,6.109,27.733,17.295,36.723l8.613,6.922c2.771,2.227,6.09,3.309,9.387,3.309c4.389,0,8.739-1.918,11.702-5.604
			C275.136,142.877,274.108,133.436,267.651,128.246z"/>
	</g>
</g>
<g>
	<g>
		<path d="M327.488,140.461l-7.343-5.901c-1.571-1.263-2.745-2.876-3.483-4.677c-0.589-1.437-0.907-2.989-0.885-4.597
			c0.013-0.987,0.158-1.949,0.405-2.876c0.66-2.477,2.112-4.681,4.212-6.277c10.146-7.711,16.143-19.439,16.453-32.179
			c0.31-12.74-5.107-24.747-14.865-32.942c-6.345-5.328-15.806-4.506-21.133,1.838c-5.329,6.344-4.506,15.805,1.838,21.133
			c3.747,3.147,4.221,7.141,4.169,9.24c-0.05,2.099-0.718,6.063-4.614,9.024c-10.287,7.818-16.288,19.712-16.463,32.632
			c-0.175,12.92,5.502,24.972,15.573,33.065l7.344,5.901c2.771,2.227,6.09,3.309,9.387,3.309c4.389,0,8.739-1.918,11.702-5.604
			C334.974,155.092,333.946,145.651,327.488,140.461z"/>
	</g>
</g>
<g>
	<g>
		<path d="M511.937,268.274c-0.64-7.695-7.077-13.743-14.937-13.743h-15.063v-10.332c0-9.786-7.962-17.748-17.748-17.748H47.812
			c-9.786,0-17.748,7.962-17.748,17.748v10.332H15c-7.86,0-14.297,6.049-14.937,13.743C0.029,268.689,0,269.106,0,269.531
			s0.029,0.842,0.063,1.257c0.64,7.694,7.077,13.743,14.937,13.743h482c7.86,0,14.297-6.049,14.937-13.743
			c0.035-0.415,0.063-0.833,0.063-1.257C512,269.107,511.971,268.689,511.937,268.274z"/>
	</g>
</g>
<g>
</g>
<g>
</g>
<g>
</g>
<g>
</g>
<g>
</g>
<g>
</g>
<g>
</g>
<g>
</g>
<g>
</g>
<g>
</g>
<g>
</g>
<g>
</g>
<g>
</g>
<g>
</g>
<g>
</g>
</svg>
